<svg xmlns="http://www.w3.org/2000/svg" width="640" height="360" viewBox="0 0 640 360">
  <rect width="640" height="360" fill="#0d1b2a"/>
  <rect x="30" y="30" width="250" height="140" rx="8" fill="#1e3a5f"/>
  <rect x="45" y="55" width="90" height="50" rx="4" fill="#00a8e8" opacity="0.3"/>
  <rect x="145" y="55" width="55" height="50" rx="4" fill="#00a8e8" opacity="0.5"/>
  <rect x="210" y="55" width="55" height="50" rx="4" fill="#00a8e8" opacity="0.7"/>
  <rect x="45" y="115" width="220" height="8" rx="4" fill="#2d5a8e"/>
  <rect x="45" y="130" width="170" height="8" rx="4" fill="#2d5a8e" opacity="0.6"/>
  <rect x="300" y="30" width="310" height="140" rx="8" fill="#1e3a5f"/>
  <circle cx="455" cy="100" r="45" fill="none" stroke="#00a8e8" stroke-width="6" stroke-dasharray="120 160"/>
  <circle cx="455" cy="100" r="45" fill="none" stroke="#00e676" stroke-width="6" stroke-dasharray="80 200" stroke-dashoffset="-120"/>
  <text x="455" y="106" font-family="Arial,sans-serif" font-size="18" fill="#fff" text-anchor="middle" font-weight="700">OEE</text>
  <rect x="30" y="190" width="580" height="140" rx="8" fill="#1e3a5f"/>
  <rect x="50" y="215" width="540" height="32" rx="16" fill="#0d1b2a" stroke="#2d5a8e"/>
  <text x="75" y="236" font-family="Arial,sans-serif" font-size="13" fill="#64748b">Ask: What is the OEE trend for Line A?</text>
  <rect x="50" y="260" width="380" height="45" rx="6" fill="#004f90" opacity="0.3"/>
  <text x="75" y="288" font-family="Arial,sans-serif" font-size="12" fill="#00a8e8">AI: Line A OEE is 87.3% this week, up 2.1%...</text>
  <text x="320" y="20" font-family="Arial,sans-serif" font-size="14" fill="#64748b" text-anchor="middle" font-weight="600">ChatBI - OEE Analytics Platform</text>
</svg>
