<svg xmlns="http://www.w3.org/2000/svg" width="640" height="360" viewBox="0 0 640 360">
  <rect width="640" height="360" fill="#0f172a"/>
  <rect x="30" y="40" width="280" height="280" rx="10" fill="#1e293b" stroke="#334155"/>
  <text x="170" y="70" font-family="Arial,sans-serif" font-size="13" fill="#94a3b8" text-anchor="middle" font-weight="700">Dify Workflow</text>
  <rect x="80" y="90" width="120" height="35" rx="6" fill="#7c3aed" opacity="0.3" stroke="#7c3aed"/>
  <text x="140" y="112" font-family="Arial,sans-serif" font-size="10" fill="#a78bfa" text-anchor="middle">User Input</text>
  <line x1="140" y1="125" x2="140" y2="148" stroke="#475569" stroke-width="1.5"/>
  <rect x="60" y="148" width="160" height="35" rx="6" fill="#0369a1" opacity="0.3" stroke="#0ea5e9"/>
  <text x="140" y="170" font-family="Arial,sans-serif" font-size="10" fill="#38bdf8" text-anchor="middle">RAG Retrieval</text>
  <line x1="140" y1="183" x2="140" y2="206" stroke="#475569" stroke-width="1.5"/>
  <rect x="60" y="206" width="160" height="35" rx="6" fill="#065f46" opacity="0.3" stroke="#10b981"/>
  <text x="140" y="228" font-family="Arial,sans-serif" font-size="10" fill="#34d399" text-anchor="middle">Qwen LLM</text>
  <line x1="140" y1="241" x2="140" y2="264" stroke="#475569" stroke-width="1.5"/>
  <rect x="70" y="264" width="140" height="32" rx="6" fill="#7c2d12" opacity="0.3" stroke="#f97316"/>
  <text x="140" y="284" font-family="Arial,sans-serif" font-size="10" fill="#fb923c" text-anchor="middle">Doubao TTS</text>
  <rect x="340" y="40" width="270" height="130" rx="10" fill="#1e293b" stroke="#334155"/>
  <text x="475" y="70" font-family="Arial,sans-serif" font-size="13" fill="#94a3b8" text-anchor="middle" font-weight="700">Stats Analysis RAG</text>
  <rect x="360" y="88" width="230" height="26" rx="13" fill="#0f172a" stroke="#334155"/>
  <text x="380" y="106" font-family="Arial,sans-serif" font-size="10" fill="#64748b">What is DOE orthogonal design?</text>
  <rect x="360" y="122" width="190" height="26" rx="4" fill="#004f90" opacity="0.2"/>
  <text x="375" y="140" font-family="Arial,sans-serif" font-size="10" fill="#38bdf8">DOE orthogonal design is a method...</text>
  <rect x="340" y="190" width="270" height="130" rx="10" fill="#1e293b" stroke="#334155"/>
  <text x="475" y="220" font-family="Arial,sans-serif" font-size="13" fill="#94a3b8" text-anchor="middle" font-weight="700">TTS Voice Output</text>
  <rect x="370" y="240" width="210" height="40" rx="6" fill="#0f172a"/>
  <rect x="385" y="253" width="6" height="18" rx="2" fill="#f97316" opacity="0.5"/>
  <rect x="396" y="248" width="6" height="28" rx="2" fill="#f97316" opacity="0.7"/>
  <rect x="407" y="251" width="6" height="22" rx="2" fill="#f97316" opacity="0.6"/>
  <rect x="418" y="246" width="6" height="32" rx="2" fill="#f97316" opacity="0.8"/>
  <rect x="429" y="252" width="6" height="20" rx="2" fill="#f97316" opacity="0.5"/>
  <rect x="440" y="249" width="6" height="26" rx="2" fill="#f97316" opacity="0.65"/>
  <rect x="451" y="253" width="6" height="18" rx="2" fill="#f97316" opacity="0.5"/>
  <rect x="462" y="247" width="6" height="30" rx="2" fill="#f97316" opacity="0.75"/>
  <rect x="473" y="250" width="6" height="24" rx="2" fill="#f97316" opacity="0.6"/>
  <rect x="484" y="254" width="6" height="16" rx="2" fill="#f97316" opacity="0.4"/>
  <rect x="495" y="248" width="6" height="28" rx="2" fill="#f97316" opacity="0.7"/>
  <rect x="506" y="252" width="6" height="20" rx="2" fill="#f97316" opacity="0.55"/>
  <rect x="517" y="256" width="6" height="12" rx="2" fill="#f97316" opacity="0.35"/>
  <rect x="528" y="249" width="6" height="26" rx="2" fill="#f97316" opacity="0.65"/>
  <rect x="539" y="253" width="6" height="18" rx="2" fill="#f97316" opacity="0.5"/>
  <rect x="550" y="247" width="6" height="30" rx="2" fill="#f97316" opacity="0.75"/>
  <text x="320" y="25" font-family="Arial,sans-serif" font-size="14" fill="#64748b" text-anchor="middle" font-weight="600">Dify AI Agents - RAG + TTS Workflow</text>
</svg>
