<svg xmlns="http://www.w3.org/2000/svg" width="400" height="300" viewBox="0 0 400 300">
  <rect width="400" height="300" rx="8" fill="#f1f5f9"/>
  <rect x="100" y="25" width="200" height="250" rx="6" fill="#fff" stroke="#e2e8f0" stroke-width="1.5"/>
  <rect x="120" y="50" width="160" height="14" rx="3" fill="#004f90"/>
  <text x="200" y="61" font-family="Inter,sans-serif" font-size="10" fill="#fff" text-anchor="middle" font-weight="700">DOE White Paper</text>
  <rect x="120" y="74" width="160" height="6" rx="2" fill="#e2e8f0"/>
  <rect x="120" y="86" width="140" height="6" rx="2" fill="#e2e8f0"/>
  <rect x="120" y="98" width="120" height="6" rx="2" fill="#e2e8f0"/>
  <rect x="120" y="120" width="70" height="50" rx="3" fill="#dbeafe"/>
  <rect x="200" y="120" width="70" height="50" rx="3" fill="#dcfce7"/>
  <circle cx="155" cy="145" r="15" fill="#004f90" opacity="0.15"/>
  <rect x="140" y="140" width="30" height="3" rx="1" fill="#004f90" opacity="0.4"/>
  <rect x="210" y="130" width="5" height="30" rx="1" fill="#10b981" opacity="0.3"/>
  <rect x="220" y="135" width="5" height="25" rx="1" fill="#10b981" opacity="0.5"/>
  <rect x="230" y="125" width="5" height="35" rx="1" fill="#10b981" opacity="0.4"/>
  <rect x="240" y="132" width="5" height="28" rx="1" fill="#10b981" opacity="0.6"/>
  <rect x="250" y="138" width="5" height="22" rx="1" fill="#10b981" opacity="0.35"/>
  <rect x="120" y="180" width="160" height="5" rx="2" fill="#e2e8f0"/>
  <rect x="120" y="192" width="140" height="5" rx="2" fill="#e2e8f0"/>
  <rect x="120" y="204" width="100" height="5" rx="2" fill="#e2e8f0"/>
  <rect x="120" y="220" width="160" height="5" rx="2" fill="#e2e8f0"/>
  <rect x="120" y="232" width="120" height="5" rx="2" fill="#e2e8f0"/>
  <rect x="120" y="244" width="150" height="5" rx="2" fill="#e2e8f0"/>
  <rect x="30" y="60" width="50" height="50" rx="4" fill="#004f90" opacity="0.08"/>
  <rect x="320" y="60" width="50" height="50" rx="4" fill="#00a8e8" opacity="0.08"/>
  <text x="200" y="15" font-family="Inter,sans-serif" font-size="9" fill="#94a3b8" text-anchor="middle">REPLACE WITH REAL PHOTO</text>
</svg>
