<svg xmlns="http://www.w3.org/2000/svg" width="400" height="300" viewBox="0 0 400 300">
  <rect width="400" height="300" rx="8" fill="#1a1a2e"/>
  <rect x="80" y="20" width="240" height="150" rx="6" fill="#16213e"/>
  <rect x="100" y="40" width="200" height="12" rx="3" fill="#00a8e8" opacity="0.4"/>
  <rect x="100" y="60" width="160" height="8" rx="3" fill="#334155" opacity="0.6"/>
  <rect x="100" y="76" width="180" height="8" rx="3" fill="#334155" opacity="0.4"/>
  <rect x="110" y="100" width="70" height="50" rx="4" fill="#004f90" opacity="0.3"/>
  <rect x="190" y="100" width="70" height="50" rx="4" fill="#00a8e8" opacity="0.3"/>
  <circle cx="145" cy="125" r="12" fill="#00a8e8" opacity="0.5"/>
  <circle cx="225" cy="125" r="12" fill="#004f90" opacity="0.5"/>
  <rect x="30" y="190" width="340" height="2" fill="#334155" opacity="0.3"/>
  <circle cx="120" cy="240" r="35" fill="#16213e"/>
  <circle cx="120" cy="228" r="12" fill="#334155"/>
  <path d="M 95 258 Q 95 245 120 240 Q 145 245 145 258" fill="#334155"/>
  <rect x="180" y="210" width="180" height="14" rx="4" fill="#f59e0b" opacity="0.8"/>
  <text x="270" y="222" font-family="Inter,sans-serif" font-size="11" fill="#1a1a2e" text-anchor="middle" font-weight="700">DOE Master Class</text>
  <rect x="180" y="232" width="140" height="10" rx="3" fill="#334155" opacity="0.5"/>
  <text x="200" y="275" font-family="Inter,sans-serif" font-size="10" fill="#64748b" text-anchor="middle">1,200+ registrations</text>
  <text x="200" y="15" font-family="Inter,sans-serif" font-size="9" fill="#475569" text-anchor="middle">REPLACE WITH REAL PHOTO</text>
</svg>
