<svg xmlns="http://www.w3.org/2000/svg" width="640" height="360" viewBox="0 0 640 360">
  <rect width="640" height="360" rx="8" fill="#f8fafc"/>
  <rect x="180" y="30" width="280" height="300" rx="4" fill="#fff" stroke="#e2e8f0" stroke-width="2"/>
  <rect x="200" y="55" width="240" height="16" rx="3" fill="#004f90" opacity="0.7"/>
  <text x="320" y="67" font-family="Arial,sans-serif" font-size="11" fill="#fff" text-anchor="middle" font-weight="700">DOE White Paper</text>
  <rect x="200" y="85" width="240" height="3" rx="1" fill="#e2e8f0"/>
  <rect x="200" y="100" width="200" height="8" rx="2" fill="#94a3b8" opacity="0.3"/>
  <rect x="200" y="115" width="230" height="8" rx="2" fill="#94a3b8" opacity="0.25"/>
  <rect x="200" y="130" width="180" height="8" rx="2" fill="#94a3b8" opacity="0.2"/>
  <rect x="200" y="155" width="240" height="3" rx="1" fill="#e2e8f0"/>
  <rect x="210" y="170" width="100" height="80" rx="4" fill="#004f90" opacity="0.08"/>
  <rect x="320" y="170" width="100" height="80" rx="4" fill="#00a8e8" opacity="0.08"/>
  <rect x="230" y="195" width="60" height="30" rx="3" fill="#004f90" opacity="0.15"/>
  <rect x="340" y="190" width="60" height="35" rx="3" fill="#00a8e8" opacity="0.15"/>
  <rect x="200" y="265" width="240" height="8" rx="2" fill="#94a3b8" opacity="0.2"/>
  <rect x="200" y="280" width="200" height="8" rx="2" fill="#94a3b8" opacity="0.15"/>
  <rect x="200" y="295" width="220" height="8" rx="2" fill="#94a3b8" opacity="0.18"/>
  <text x="320" y="350" font-family="Arial,sans-serif" font-size="10" fill="#64748b" text-anchor="middle">Zero-to-One Guide for Engineers</text>
</svg>
