<svg xmlns="http://www.w3.org/2000/svg" width="400" height="300" viewBox="0 0 400 300">
  <rect width="400" height="300" rx="8" fill="#0f172a"/>
  <rect x="40" y="30" width="320" height="160" rx="6" fill="#1e293b"/>
  <rect x="60" y="50" width="120" height="80" rx="4" fill="#004f90" opacity="0.25"/>
  <rect x="60" y="55" width="100" height="8" rx="2" fill="#38bdf8" opacity="0.6"/>
  <rect x="60" y="70" width="80" height="6" rx="2" fill="#475569"/>
  <rect x="60" y="82" width="90" height="6" rx="2" fill="#475569" opacity="0.6"/>
  <rect x="60" y="94" width="70" height="6" rx="2" fill="#475569" opacity="0.4"/>
  <rect x="200" y="50" width="140" height="80" rx="4" fill="#065f46" opacity="0.2"/>
  <circle cx="250" cy="80" r="20" fill="none" stroke="#10b981" stroke-width="3"/>
  <line x1="240" y1="75" x2="260" y2="85" stroke="#10b981" stroke-width="2"/>
  <rect x="290" y="60" width="35" height="40" rx="2" fill="#10b981" opacity="0.15"/>
  <rect x="60" y="140" width="280" height="30" rx="4" fill="#1a1a2e"/>
  <rect x="70" y="148" width="200" height="4" rx="2" fill="#334155"/>
  <rect x="70" y="156" width="150" height="4" rx="2" fill="#334155" opacity="0.5"/>
  <rect x="40" y="210" width="320" height="60" rx="6" fill="#1e293b"/>
  <text x="200" y="245" font-family="Inter,sans-serif" font-size="13" fill="#f59e0b" text-anchor="middle" font-weight="700">DOE Case Studies · 3 Methods</text>
  <text x="200" y="262" font-family="Inter,sans-serif" font-size="10" fill="#64748b" text-anchor="middle">Industry DOE Application Cases</text>
  <text x="200" y="20" font-family="Inter,sans-serif" font-size="9" fill="#475569" text-anchor="middle">REPLACE WITH REAL PHOTO</text>
</svg>
