<svg xmlns="http://www.w3.org/2000/svg" width="640" height="360" viewBox="0 0 640 360">
  <rect width="640" height="360" rx="8" fill="#0f172a"/>
  <rect x="40" y="30" width="560" height="50" rx="6" fill="#1e293b"/>
  <text x="320" y="62" font-family="Arial,sans-serif" font-size="15" fill="#f59e0b" text-anchor="middle" font-weight="700">DOE Case Studies: 3 Methods for R and D</text>
  <rect x="40" y="100" width="170" height="220" rx="6" fill="#1e293b"/>
  <text x="125" y="130" font-family="Arial,sans-serif" font-size="11" fill="#00a8e8" text-anchor="middle" font-weight="600">Full Factorial</text>
  <rect x="60" y="148" width="20" height="60" rx="2" fill="#00a8e8" opacity="0.6"/>
  <rect x="88" y="168" width="20" height="40" rx="2" fill="#00a8e8" opacity="0.4"/>
  <rect x="116" y="138" width="20" height="70" rx="2" fill="#00a8e8" opacity="0.8"/>
  <rect x="144" y="158" width="20" height="50" rx="2" fill="#00a8e8" opacity="0.5"/>
  <text x="125" y="240" font-family="Arial,sans-serif" font-size="10" fill="#64748b" text-anchor="middle">2 factors, 3 levels</text>
  <rect x="235" y="100" width="170" height="220" rx="6" fill="#1e293b"/>
  <text x="320" y="130" font-family="Arial,sans-serif" font-size="11" fill="#10b981" text-anchor="middle" font-weight="600">Fractional</text>
  <circle cx="290" cy="185" r="25" fill="none" stroke="#10b981" stroke-width="3" stroke-dasharray="50 110"/>
  <circle cx="350" cy="185" r="25" fill="none" stroke="#10b981" stroke-width="3" stroke-dasharray="30 130" stroke-dashoffset="-20"/>
  <text x="320" y="240" font-family="Arial,sans-serif" font-size="10" fill="#64748b" text-anchor="middle">Resolution IV</text>
  <rect x="430" y="100" width="170" height="220" rx="6" fill="#1e293b"/>
  <text x="515" y="130" font-family="Arial,sans-serif" font-size="11" fill="#f59e0b" text-anchor="middle" font-weight="600">Definitive Screen</text>
  <rect x="455" y="148" width="120" height="65" rx="4" fill="#0f172a"/>
  <polyline points="465,200 480,180 495,190 510,170 525,175 540,160 555,165" fill="none" stroke="#f59e0b" stroke-width="2"/>
  <text x="515" y="240" font-family="Arial,sans-serif" font-size="10" fill="#64748b" text-anchor="middle">Optimal screening</text>
</svg>
