<svg xmlns="http://www.w3.org/2000/svg" width="640" height="360" viewBox="0 0 640 360">
  <rect width="640" height="360" rx="8" fill="#1a1a2e"/>
  <rect x="100" y="20" width="440" height="170" rx="6" fill="#16213e"/>
  <rect x="130" y="45" width="380" height="14" rx="3" fill="#00a8e8" opacity="0.4"/>
  <rect x="130" y="68" width="300" height="10" rx="3" fill="#334155" opacity="0.6"/>
  <rect x="130" y="86" width="340" height="10" rx="3" fill="#334155" opacity="0.4"/>
  <rect x="140" y="112" width="100" height="55" rx="4" fill="#004f90" opacity="0.3"/>
  <rect x="260" y="112" width="100" height="55" rx="4" fill="#00a8e8" opacity="0.3"/>
  <circle cx="190" cy="140" r="14" fill="#00a8e8" opacity="0.5"/>
  <circle cx="310" cy="140" r="14" fill="#004f90" opacity="0.5"/>
  <rect x="50" y="210" width="540" height="3" fill="#334155" opacity="0.3"/>
  <circle cx="180" cy="275" r="40" fill="#16213e"/>
  <circle cx="180" cy="260" r="14" fill="#334155"/>
  <path d="M 150 300 Q 150 285 180 278 Q 210 285 210 300" fill="#334155"/>
  <rect x="260" y="240" width="300" height="18" rx="4" fill="#f59e0b" opacity="0.8"/>
  <text x="410" y="254" font-family="Arial,sans-serif" font-size="12" fill="#1a1a2e" text-anchor="middle" font-weight="700">DOE Master Class</text>
  <rect x="260" y="268" width="230" height="12" rx="3" fill="#334155" opacity="0.5"/>
  <text x="320" y="320" font-family="Arial,sans-serif" font-size="11" fill="#64748b" text-anchor="middle">1,200+ registrations</text>
</svg>
