<svg xmlns="http://www.w3.org/2000/svg" width="640" height="360" viewBox="0 0 640 360">
  <rect width="640" height="360" rx="8" fill="#1a1a2e"/>
  <rect x="40" y="30" width="560" height="50" rx="6" fill="#16213e"/>
  <text x="320" y="62" font-family="Arial,sans-serif" font-size="14" fill="#00a8e8" text-anchor="middle" font-weight="700">Quality Analysis - 2 Cases for QE</text>
  <rect x="40" y="100" width="270" height="225" rx="6" fill="#16213e"/>
  <text x="175" y="130" font-family="Arial,sans-serif" font-size="12" fill="#10b981" text-anchor="middle" font-weight="600">Control Chart</text>
  <line x1="70" y1="160" x2="280" y2="160" stroke="#334155" stroke-width="1" stroke-dasharray="4"/>
  <line x1="70" y1="200" x2="280" y2="200" stroke="#10b981" stroke-width="1.5"/>
  <line x1="70" y1="240" x2="280" y2="240" stroke="#334155" stroke-width="1" stroke-dasharray="4"/>
  <polyline points="80,210 110,195 140,205 170,190 200,215 230,185 260,198" fill="none" stroke="#00a8e8" stroke-width="2"/>
  <circle cx="80" cy="210" r="3" fill="#00a8e8"/>
  <circle cx="110" cy="195" r="3" fill="#00a8e8"/>
  <circle cx="140" cy="205" r="3" fill="#00a8e8"/>
  <circle cx="170" cy="190" r="3" fill="#00a8e8"/>
  <circle cx="200" cy="215" r="3" fill="#00a8e8"/>
  <circle cx="230" cy="185" r="3" fill="#f59e0b"/>
  <circle cx="260" cy="198" r="3" fill="#00a8e8"/>
  <text x="175" y="290" font-family="Arial,sans-serif" font-size="10" fill="#64748b" text-anchor="middle">UCL / CL / LCL</text>
  <rect x="330" y="100" width="270" height="225" rx="6" fill="#16213e"/>
  <text x="465" y="130" font-family="Arial,sans-serif" font-size="12" fill="#f59e0b" text-anchor="middle" font-weight="600">Capability</text>
  <rect x="370" y="150" width="20" height="30" rx="2" fill="#38bdf8" opacity="0.3"/>
  <rect x="400" y="140" width="20" height="55" rx="2" fill="#38bdf8" opacity="0.5"/>
  <rect x="430" y="130" width="20" height="85" rx="2" fill="#38bdf8" opacity="0.8"/>
  <rect x="460" y="135" width="20" height="70" rx="2" fill="#38bdf8" opacity="0.6"/>
  <rect x="490" y="145" width="20" height="45" rx="2" fill="#38bdf8" opacity="0.4"/>
  <rect x="520" y="155" width="20" height="25" rx="2" fill="#38bdf8" opacity="0.25"/>
  <text x="465" y="250" font-family="Arial,sans-serif" font-size="14" fill="#10b981" text-anchor="middle" font-weight="700">Cpk = 1.67</text>
  <text x="465" y="275" font-family="Arial,sans-serif" font-size="10" fill="#64748b" text-anchor="middle">Process is capable</text>
</svg>
