<svg xmlns="http://www.w3.org/2000/svg" width="640" height="360" viewBox="0 0 640 360">
  <rect width="640" height="360" fill="#0f172a"/>
  <text x="320" y="28" font-family="Arial,sans-serif" font-size="13" fill="#64748b" text-anchor="middle" font-weight="600">Random Forest - Feature Importance</text>
  <rect x="40" y="45" width="300" height="270" rx="6" fill="#1e293b"/>
  <text x="190" y="72" font-family="Arial,sans-serif" font-size="11" fill="#94a3b8" text-anchor="middle" font-weight="600">Feature Ranking</text>
  <rect x="60" y="90" width="240" height="16" rx="3" fill="#38bdf8" opacity="0.8"/>
  <text x="68" y="102" font-family="Arial,sans-serif" font-size="10" fill="#fff" font-weight="600">Temperature</text>
  <rect x="60" y="115" width="195" height="16" rx="3" fill="#38bdf8" opacity="0.6"/>
  <text x="68" y="127" font-family="Arial,sans-serif" font-size="10" fill="#fff" font-weight="600">Pressure</text>
  <rect x="60" y="140" width="155" height="16" rx="3" fill="#38bdf8" opacity="0.45"/>
  <text x="68" y="152" font-family="Arial,sans-serif" font-size="10" fill="#fff" font-weight="600">Humidity</text>
  <rect x="60" y="165" width="115" height="16" rx="3" fill="#38bdf8" opacity="0.3"/>
  <text x="68" y="177" font-family="Arial,sans-serif" font-size="10" fill="#fff" font-weight="600">Speed</text>
  <rect x="60" y="190" width="82" height="16" rx="3" fill="#38bdf8" opacity="0.2"/>
  <text x="68" y="202" font-family="Arial,sans-serif" font-size="10" fill="#d1d5db" font-weight="600">Time</text>
  <rect x="60" y="225" width="260" height="55" rx="4" fill="#0f172a"/>
  <text x="190" y="252" font-family="Arial,sans-serif" font-size="12" fill="#10b981" text-anchor="middle" font-weight="600">Accuracy: 94.7%</text>
  <text x="190" y="270" font-family="Arial,sans-serif" font-size="10" fill="#64748b" text-anchor="middle">F1-Score: 0.93</text>
  <rect x="370" y="45" width="230" height="270" rx="6" fill="#1e293b"/>
  <text x="485" y="72" font-family="Arial,sans-serif" font-size="11" fill="#94a3b8" text-anchor="middle" font-weight="600">Confusion Matrix</text>
  <rect x="400" y="90" width="55" height="55" rx="3" fill="#10b981" opacity="0.6"/>
  <text x="427" y="122" font-family="Arial,sans-serif" font-size="13" fill="#fff" text-anchor="middle" font-weight="700">TP</text>
  <rect x="465" y="90" width="55" height="55" rx="3" fill="#ef4444" opacity="0.2"/>
  <text x="492" y="122" font-family="Arial,sans-serif" font-size="13" fill="#94a3b8" text-anchor="middle">FP</text>
  <rect x="400" y="155" width="55" height="55" rx="3" fill="#ef4444" opacity="0.2"/>
  <text x="427" y="187" font-family="Arial,sans-serif" font-size="13" fill="#94a3b8" text-anchor="middle">FN</text>
  <rect x="465" y="155" width="55" height="55" rx="3" fill="#10b981" opacity="0.6"/>
  <text x="492" y="187" font-family="Arial,sans-serif" font-size="13" fill="#fff" text-anchor="middle" font-weight="700">TN</text>
  <rect x="390" y="230" width="140" height="65" rx="4" fill="#0f172a"/>
  <text x="460" y="258" font-family="Arial,sans-serif" font-size="10" fill="#64748b" text-anchor="middle">Classification</text>
  <text x="460" y="280" font-family="Arial,sans-serif" font-size="18" fill="#f59e0b" text-anchor="middle" font-weight="800">OK / NG</text>
</svg>
