<svg xmlns="http://www.w3.org/2000/svg" width="600" height="340" viewBox="0 0 600 340">
  <defs>
    <linearGradient id="bg" x1="0%" y1="0%" x2="100%" y2="100%">
      <stop offset="0%" style="stop-color:#0d1b2a"/>
      <stop offset="100%" style="stop-color:#1b263b"/>
    </linearGradient>
  </defs>
  <rect width="600" height="340" fill="url(#bg)"/>
  <rect x="30" y="30" width="250" height="140" rx="8" fill="#1e3a5f" stroke="#2d5a8e" stroke-width="1"/>
  <rect x="40" y="50" width="90" height="60" rx="4" fill="#00a8e8" opacity="0.3"/>
  <rect x="140" y="50" width="60" height="60" rx="4" fill="#00a8e8" opacity="0.5"/>
  <rect x="210" y="50" width="60" height="60" rx="4" fill="#00a8e8" opacity="0.7"/>
  <rect x="40" y="120" width="230" height="8" rx="4" fill="#2d5a8e"/>
  <rect x="40" y="135" width="180" height="8" rx="4" fill="#2d5a8e" opacity="0.6"/>
  <rect x="300" y="30" width="270" height="140" rx="8" fill="#1e3a5f" stroke="#2d5a8e" stroke-width="1"/>
  <circle cx="435" cy="100" r="45" fill="none" stroke="#00a8e8" stroke-width="6" stroke-dasharray="120 160"/>
  <circle cx="435" cy="100" r="45" fill="none" stroke="#00e676" stroke-width="6" stroke-dasharray="80 200" stroke-dashoffset="-120"/>
  <text x="435" y="105" font-family="Inter,sans-serif" font-size="18" fill="#fff" text-anchor="middle" font-weight="700">OEE</text>
  <rect x="30" y="190" width="540" height="120" rx="8" fill="#1e3a5f" stroke="#2d5a8e" stroke-width="1"/>
  <rect x="50" y="210" width="500" height="30" rx="15" fill="#0d1b2a" stroke="#2d5a8e" stroke-width="1"/>
  <text x="70" y="230" font-family="Inter,sans-serif" font-size="13" fill="#64748b">Ask: What's the OEE trend for Line A?</text>
  <rect x="50" y="255" width="350" height="40" rx="6" fill="#004f90" opacity="0.3"/>
  <text x="70" y="280" font-family="Inter,sans-serif" font-size="12" fill="#00a8e8">AI: The OEE for Line A shows 87.3% this week...</text>
  <text x="300" y="25" font-family="Inter,sans-serif" font-size="14" fill="#64748b" text-anchor="middle" font-weight="600">ChatBI · OEE Analytics Platform</text>
</svg>
