<svg xmlns="http://www.w3.org/2000/svg" viewBox="0 0 640 360">
  <defs>
    <linearGradient id="bg" x1="0" y1="0" x2="1" y2="1"><stop offset="0%" stop-color="#0d1b2a"/><stop offset="100%" stop-color="#1b2838"/></linearGradient>
  </defs>
  <rect width="640" height="360" fill="url(#bg)"/>
  <rect x="30" y="30" width="260" height="300" rx="8" fill="#162536" stroke="#2a4a6b" stroke-width="1"/>
  <rect x="45" y="50" width="100" height="8" rx="4" fill="#00a8e8" opacity="0.7"/>
  <rect x="45" y="70" width="230" height="50" rx="4" fill="#1a3550"/>
  <rect x="45" y="130" width="230" height="50" rx="4" fill="#1a3550"/>
  <rect x="45" y="190" width="230" height="50" rx="4" fill="#1a3550"/>
  <rect x="45" y="260" width="130" height="24" rx="12" fill="#00a8e8" opacity="0.8"/>
  <rect x="310" y="30" width="300" height="140" rx="8" fill="#162536" stroke="#2a4a6b" stroke-width="1"/>
  <circle cx="360" cy="100" r="40" fill="none" stroke="#00a8e8" stroke-width="3" opacity="0.6"/>
  <circle cx="460" cy="100" r="40" fill="none" stroke="#ffc107" stroke-width="3" opacity="0.6"/>
  <circle cx="560" cy="100" r="40" fill="none" stroke="#4caf50" stroke-width="3" opacity="0.6"/>
  <rect x="310" y="190" width="300" height="140" rx="8" fill="#162536" stroke="#2a4a6b" stroke-width="1"/>
  <rect x="330" y="210" width="260" height="16" rx="3" fill="#1a3550"/>
  <rect x="330" y="240" width="100" height="70" rx="4" fill="#1a3550"/>
  <rect x="445" y="240" width="100" height="70" rx="4" fill="#1a3550"/>
  <text x="320" y="344" font-family="monospace" font-size="11" fill="#4a6a8a">ChatBI · NL2SQL · OEE Analytics</text>
</svg>
