<svg xmlns="http://www.w3.org/2000/svg" width="600" height="340" viewBox="0 0 600 340">
  <defs>
    <linearGradient id="bg2" x1="0%" y1="0%" x2="100%" y2="100%">
      <stop offset="0%" style="stop-color:#1a1a2e"/>
      <stop offset="100%" style="stop-color:#16213e"/>
    </linearGradient>
  </defs>
  <rect width="600" height="340" fill="url(#bg2)"/>
  <rect x="30" y="40" width="340" height="260" rx="8" fill="#0f3460" opacity="0.4" stroke="#1a508b" stroke-width="1"/>
  <rect x="50" y="60" width="300" height="200" rx="4" fill="#1a1a2e"/>
  <rect x="80" y="90" width="120" height="80" rx="2" fill="none" stroke="#e94560" stroke-width="2" stroke-dasharray="5,3"/>
  <text x="140" y="135" font-family="Inter,sans-serif" font-size="11" fill="#e94560" text-anchor="middle" font-weight="600">defect: crack</text>
  <text x="140" y="150" font-family="Inter,sans-serif" font-size="10" fill="#e94560" text-anchor="middle">conf: 0.94</text>
  <rect x="220" y="140" width="100" height="60" rx="2" fill="none" stroke="#00e676" stroke-width="2"/>
  <text x="270" y="175" font-family="Inter,sans-serif" font-size="11" fill="#00e676" text-anchor="middle" font-weight="600">OK</text>
  <line x1="60" y1="80" x2="340" y2="80" stroke="#1a508b" stroke-width="0.5" opacity="0.3"/>
  <line x1="60" y1="120" x2="340" y2="120" stroke="#1a508b" stroke-width="0.5" opacity="0.3"/>
  <line x1="60" y1="160" x2="340" y2="160" stroke="#1a508b" stroke-width="0.5" opacity="0.3"/>
  <line x1="60" y1="200" x2="340" y2="200" stroke="#1a508b" stroke-width="0.5" opacity="0.3"/>
  <rect x="395" y="40" width="175" height="80" rx="8" fill="#0f3460" opacity="0.5"/>
  <text x="482" y="65" font-family="Inter,sans-serif" font-size="11" fill="#64748b" text-anchor="middle" font-weight="600">DETECTION</text>
  <text x="482" y="95" font-family="Inter,sans-serif" font-size="28" fill="#00e676" text-anchor="middle" font-weight="800">YOLO11</text>
  <rect x="395" y="135" width="175" height="70" rx="8" fill="#0f3460" opacity="0.5"/>
  <text x="482" y="158" font-family="Inter,sans-serif" font-size="11" fill="#64748b" text-anchor="middle">mAP@0.5</text>
  <text x="482" y="185" font-family="Inter,sans-serif" font-size="24" fill="#00a8e8" text-anchor="middle" font-weight="700">96.2%</text>
  <rect x="395" y="220" width="175" height="80" rx="8" fill="#0f3460" opacity="0.5"/>
  <text x="482" y="245" font-family="Inter,sans-serif" font-size="11" fill="#64748b" text-anchor="middle">Inference</text>
  <text x="482" y="275" font-family="Inter,sans-serif" font-size="20" fill="#fff" text-anchor="middle" font-weight="700">12ms/img</text>
  <text x="300" y="25" font-family="Inter,sans-serif" font-size="14" fill="#64748b" text-anchor="middle" font-weight="600">Industrial Defect Detection · YOLO11</text>
</svg>
