<svg xmlns="http://www.w3.org/2000/svg" width="640" height="360" viewBox="0 0 640 360">
  <rect width="640" height="360" fill="#fef3c7"/>
  <path d="M 0 280 Q 80 250 160 260 Q 240 230 320 240 Q 400 220 480 225 Q 560 210 640 220 L 640 360 L 0 360 Z" fill="#d97706" opacity="0.15"/>
  <path d="M 0 310 Q 100 285 200 295 Q 300 270 400 280 Q 500 265 600 272 Q 620 270 640 275 L 640 360 L 0 360 Z" fill="#92400e" opacity="0.1"/>
  <circle cx="130" cy="265" r="5" fill="#d97706"/>
  <circle cx="200" cy="252" r="5" fill="#b45309"/>
  <circle cx="300" cy="240" r="5" fill="#92400e"/>
  <circle cx="400" cy="228" r="5" fill="#78350f"/>
  <circle cx="510" cy="222" r="5" fill="#451a03"/>
  <text x="130" y="283" font-family="Arial,sans-serif" font-size="9" fill="#78350f" text-anchor="middle">Lanzhou</text>
  <text x="200" y="270" font-family="Arial,sans-serif" font-size="9" fill="#78350f" text-anchor="middle">Wuwei</text>
  <text x="300" y="258" font-family="Arial,sans-serif" font-size="9" fill="#78350f" text-anchor="middle">Zhangye</text>
  <text x="400" y="246" font-family="Arial,sans-serif" font-size="9" fill="#78350f" text-anchor="middle">Jiayuguan</text>
  <text x="510" y="240" font-family="Arial,sans-serif" font-size="9" fill="#78350f" text-anchor="middle">Dunhuang</text>
  <rect x="100" y="30" width="440" height="65" rx="6" fill="#fff" opacity="0.8"/>
  <text x="320" y="58" font-family="Arial,sans-serif" font-size="17" fill="#78350f" text-anchor="middle" font-weight="800">Hexi Corridor - Silk Road</text>
  <text x="320" y="80" font-family="Arial,sans-serif" font-size="11" fill="#92400e" text-anchor="middle">Data-Driven Journey - JMP Visualization</text>
  <rect x="50" y="120" width="160" height="80" rx="6" fill="#fff" opacity="0.7"/>
  <text x="130" y="148" font-family="Arial,sans-serif" font-size="10" fill="#78350f" text-anchor="middle" font-weight="600">Geography</text>
  <rect x="70" y="158" width="25" height="28" rx="2" fill="#d97706" opacity="0.4"/>
  <rect x="102" y="165" width="25" height="21" rx="2" fill="#b45309" opacity="0.4"/>
  <rect x="134" y="152" width="25" height="34" rx="2" fill="#92400e" opacity="0.4"/>
  <rect x="240" y="120" width="160" height="80" rx="6" fill="#fff" opacity="0.7"/>
  <text x="320" y="148" font-family="Arial,sans-serif" font-size="10" fill="#78350f" text-anchor="middle" font-weight="600">Climate</text>
  <polyline points="255,172 278,160 301,166 324,155 347,170 370,158" fill="none" stroke="#d97706" stroke-width="1.5"/>
  <rect x="430" y="120" width="160" height="80" rx="6" fill="#fff" opacity="0.7"/>
  <text x="510" y="148" font-family="Arial,sans-serif" font-size="10" fill="#78350f" text-anchor="middle" font-weight="600">Culture</text>
  <circle cx="485" cy="168" r="14" fill="#fbbf24" opacity="0.3"/>
  <circle cx="515" cy="168" r="17" fill="#d97706" opacity="0.2"/>
  <circle cx="540" cy="168" r="11" fill="#92400e" opacity="0.3"/>
</svg>
