<svg xmlns="http://www.w3.org/2000/svg" width="400" height="300" viewBox="0 0 400 300">
  <rect width="400" height="300" rx="8" fill="#fef3c7"/>
  <path d="M 0 250 Q 50 220 100 230 Q 150 200 200 210 Q 250 190 300 195 Q 350 180 400 190 L 400 300 L 0 300 Z" fill="#d97706" opacity="0.15"/>
  <path d="M 0 270 Q 60 250 120 260 Q 180 240 240 248 Q 300 235 360 240 Q 380 238 400 242 L 400 300 L 0 300 Z" fill="#92400e" opacity="0.1"/>
  <line x1="80" y1="230" x2="120" y2="220" stroke="#d97706" stroke-width="1.5" stroke-dasharray="4,3"/>
  <line x1="120" y1="220" x2="180" y2="210" stroke="#d97706" stroke-width="1.5" stroke-dasharray="4,3"/>
  <line x1="180" y1="210" x2="240" y2="200" stroke="#d97706" stroke-width="1.5" stroke-dasharray="4,3"/>
  <line x1="240" y1="200" x2="320" y2="195" stroke="#d97706" stroke-width="1.5" stroke-dasharray="4,3"/>
  <circle cx="80" cy="230" r="5" fill="#d97706"/>
  <circle cx="120" cy="220" r="5" fill="#b45309"/>
  <circle cx="180" cy="210" r="5" fill="#92400e"/>
  <circle cx="240" cy="200" r="5" fill="#78350f"/>
  <circle cx="320" cy="195" r="5" fill="#451a03"/>
  <text x="80" y="248" font-family="Inter,sans-serif" font-size="8" fill="#78350f" text-anchor="middle">Lanzhou</text>
  <text x="120" y="238" font-family="Inter,sans-serif" font-size="8" fill="#78350f" text-anchor="middle">Wuwei</text>
  <text x="180" y="228" font-family="Inter,sans-serif" font-size="8" fill="#78350f" text-anchor="middle">Zhangye</text>
  <text x="240" y="218" font-family="Inter,sans-serif" font-size="8" fill="#78350f" text-anchor="middle">Jiayuguan</text>
  <text x="320" y="213" font-family="Inter,sans-serif" font-size="8" fill="#78350f" text-anchor="middle">Dunhuang</text>
  <rect x="30" y="30" width="340" height="60" rx="6" fill="#fff" opacity="0.8"/>
  <text x="200" y="55" font-family="Inter,sans-serif" font-size="15" fill="#78350f" text-anchor="middle" font-weight="800">Hexi Corridor · Silk Road</text>
  <text x="200" y="75" font-family="Inter,sans-serif" font-size="10" fill="#92400e" text-anchor="middle">Data-Driven Journey · JMP Visualization</text>
  <rect x="30" y="110" width="100" height="70" rx="6" fill="#fff" opacity="0.7"/>
  <text x="80" y="135" font-family="Inter,sans-serif" font-size="9" fill="#78350f" text-anchor="middle" font-weight="600">Geography</text>
  <rect x="40" y="142" width="20" height="25" rx="2" fill="#d97706" opacity="0.4"/>
  <rect x="65" y="148" width="20" height="19" rx="2" fill="#b45309" opacity="0.4"/>
  <rect x="90" y="138" width="20" height="29" rx="2" fill="#92400e" opacity="0.4"/>
  <rect x="145" y="110" width="100" height="70" rx="6" fill="#fff" opacity="0.7"/>
  <text x="195" y="135" font-family="Inter,sans-serif" font-size="9" fill="#78350f" text-anchor="middle" font-weight="600">Climate</text>
  <polyline points="155,160 170,150 185,155 200,145 215,158 230,148" fill="none" stroke="#d97706" stroke-width="1.5"/>
  <rect x="260" y="110" width="110" height="70" rx="6" fill="#fff" opacity="0.7"/>
  <text x="315" y="135" font-family="Inter,sans-serif" font-size="9" fill="#78350f" text-anchor="middle" font-weight="600">Culture</text>
  <circle cx="295" cy="155" r="12" fill="#fbbf24" opacity="0.3"/>
  <circle cx="320" cy="155" r="15" fill="#d97706" opacity="0.2"/>
  <circle cx="340" cy="155" r="10" fill="#92400e" opacity="0.3"/>
</svg>
