<svg xmlns="http://www.w3.org/2000/svg" width="640" height="360" viewBox="0 0 640 360">
  <rect width="640" height="360" fill="#1a1a2e"/>
  <rect x="40" y="30" width="170" height="140" rx="8" fill="#16213e"/>
  <circle cx="125" cy="80" r="18" fill="#f59e0b" opacity="0.4"/>
  <circle cx="125" cy="80" r="10" fill="#f59e0b" opacity="0.6"/>
  <text x="125" y="155" font-family="Arial,sans-serif" font-size="11" fill="#f59e0b" text-anchor="middle" font-weight="600">Cat 0.97</text>
  <rect x="230" y="30" width="170" height="140" rx="8" fill="#16213e"/>
  <circle cx="315" cy="75" r="14" fill="#38bdf8" opacity="0.4"/>
  <circle cx="315" cy="75" r="7" fill="#38bdf8" opacity="0.6"/>
  <rect x="290" y="98" width="50" height="35" rx="4" fill="#38bdf8" opacity="0.12"/>
  <text x="315" y="155" font-family="Arial,sans-serif" font-size="11" fill="#38bdf8" text-anchor="middle" font-weight="600">Dog 0.95</text>
  <rect x="420" y="30" width="180" height="140" rx="8" fill="#16213e"/>
  <text x="510" y="65" font-family="Arial,sans-serif" font-size="10" fill="#64748b" text-anchor="middle">Accuracy</text>
  <text x="510" y="95" font-family="Arial,sans-serif" font-size="26" fill="#10b981" text-anchor="middle" font-weight="800">98%</text>
  <text x="510" y="120" font-family="Arial,sans-serif" font-size="10" fill="#64748b" text-anchor="middle">Transfer Learning</text>
  <rect x="40" y="195" width="560" height="130" rx="8" fill="#16213e"/>
  <text x="320" y="230" font-family="Arial,sans-serif" font-size="15" fill="#fff" text-anchor="middle" font-weight="700">Kaggle Dogs vs Cats</text>
  <text x="320" y="255" font-family="Arial,sans-serif" font-size="11" fill="#64748b" text-anchor="middle">PyTorch - Transfer Learning - ResNet</text>
  <rect x="160" y="275" width="320" height="10" rx="5" fill="#0f172a"/>
  <rect x="160" y="275" width="314" height="10" rx="5" fill="#10b981" opacity="0.6"/>
  <text x="320" y="305" font-family="Arial,sans-serif" font-size="10" fill="#64748b" text-anchor="middle">Training Progress: 98%</text>
</svg>
