<svg xmlns="http://www.w3.org/2000/svg" width="600" height="340" viewBox="0 0 600 340">
  <defs>
    <linearGradient id="bg3" x1="0%" y1="0%" x2="100%" y2="100%">
      <stop offset="0%" style="stop-color:#0a192f"/>
      <stop offset="100%" style="stop-color:#172a45"/>
    </linearGradient>
  </defs>
  <rect width="600" height="340" fill="url(#bg3)"/>
  <rect x="30" y="50" width="160" height="240" rx="8" fill="#112240" stroke="#233554" stroke-width="1"/>
  <text x="110" y="75" font-family="Inter,sans-serif" font-size="12" fill="#64748b" text-anchor="middle" font-weight="600">Documents</text>
  <rect x="45" y="90" width="130" height="25" rx="4" fill="#233554"/>
  <text x="60" y="107" font-family="Inter,sans-serif" font-size="10" fill="#8892b0">manual_v3.pdf</text>
  <rect x="45" y="122" width="130" height="25" rx="4" fill="#233554"/>
  <text x="60" y="139" font-family="Inter,sans-serif" font-size="10" fill="#8892b0">spec_sheet.pdf</text>
  <rect x="45" y="154" width="130" height="25" rx="4" fill="#233554"/>
  <text x="60" y="171" font-family="Inter,sans-serif" font-size="10" fill="#8892b0">repair_guide.pdf</text>
  <rect x="45" y="186" width="130" height="25" rx="4" fill="#233554"/>
  <text x="60" y="203" font-family="Inter,sans-serif" font-size="10" fill="#8892b0">safety_rules.pdf</text>
  <line x1="190" y1="170" x2="230" y2="170" stroke="#00a8e8" stroke-width="2" marker-end="url(#arrow)"/>
  <rect x="230" y="100" width="140" height="140" rx="8" fill="#112240" stroke="#00a8e8" stroke-width="1.5"/>
  <text x="300" y="130" font-family="Inter,sans-serif" font-size="12" fill="#00a8e8" text-anchor="middle" font-weight="700">ChromaDB</text>
  <text x="300" y="150" font-family="Inter,sans-serif" font-size="10" fill="#64748b" text-anchor="middle">Vector Store</text>
  <circle cx="270" cy="180" r="6" fill="#00a8e8" opacity="0.3"/>
  <circle cx="290" cy="195" r="6" fill="#00a8e8" opacity="0.5"/>
  <circle cx="310" cy="175" r="6" fill="#00a8e8" opacity="0.4"/>
  <circle cx="330" cy="200" r="6" fill="#00a8e8" opacity="0.6"/>
  <circle cx="280" cy="215" r="6" fill="#00a8e8" opacity="0.35"/>
  <circle cx="320" cy="215" r="6" fill="#00a8e8" opacity="0.45"/>
  <line x1="370" y1="170" x2="410" y2="170" stroke="#00a8e8" stroke-width="2"/>
  <rect x="410" y="50" width="160" height="240" rx="8" fill="#112240" stroke="#233554" stroke-width="1"/>
  <text x="490" y="75" font-family="Inter,sans-serif" font-size="12" fill="#64748b" text-anchor="middle" font-weight="600">LLM + RAG</text>
  <rect x="425" y="90" width="130" height="50" rx="6" fill="#004f90" opacity="0.3"/>
  <text x="490" y="115" font-family="Inter,sans-serif" font-size="11" fill="#00a8e8" text-anchor="middle">Qwen / LangChain</text>
  <text x="490" y="130" font-family="Inter,sans-serif" font-size="10" fill="#64748b" text-anchor="middle">Retrieval + Generate</text>
  <rect x="425" y="155" width="130" height="70" rx="6" fill="#233554"/>
  <text x="490" y="175" font-family="Inter,sans-serif" font-size="10" fill="#8892b0" text-anchor="middle">Q: How to replace</text>
  <text x="490" y="190" font-family="Inter,sans-serif" font-size="10" fill="#8892b0" text-anchor="middle">the hydraulic pump?</text>
  <text x="490" y="210" font-family="Inter,sans-serif" font-size="10" fill="#00e676" text-anchor="middle">A: Step 1: Shut down...</text>
  <rect x="425" y="240" width="130" height="35" rx="6" fill="#233554"/>
  <text x="490" y="262" font-family="Inter,sans-serif" font-size="10" fill="#64748b" text-anchor="middle">React Frontend</text>
  <text x="300" y="30" font-family="Inter,sans-serif" font-size="14" fill="#64748b" text-anchor="middle" font-weight="600">Industrial RAG Knowledge Q&A System</text>
</svg>
