<svg xmlns="http://www.w3.org/2000/svg" width="640" height="360" viewBox="0 0 640 360">
  <rect width="640" height="360" fill="#0a192f"/>
  <rect x="30" y="50" width="160" height="250" rx="8" fill="#112240" stroke="#233554"/>
  <text x="110" y="78" font-family="Arial,sans-serif" font-size="12" fill="#64748b" text-anchor="middle" font-weight="600">Documents</text>
  <rect x="45" y="92" width="130" height="24" rx="4" fill="#233554"/>
  <text x="60" y="109" font-family="Arial,sans-serif" font-size="10" fill="#8892b0">manual_v3.pdf</text>
  <rect x="45" y="122" width="130" height="24" rx="4" fill="#233554"/>
  <text x="60" y="139" font-family="Arial,sans-serif" font-size="10" fill="#8892b0">spec_sheet.pdf</text>
  <rect x="45" y="152" width="130" height="24" rx="4" fill="#233554"/>
  <text x="60" y="169" font-family="Arial,sans-serif" font-size="10" fill="#8892b0">repair_guide.pdf</text>
  <rect x="230" y="90" width="160" height="160" rx="8" fill="#112240" stroke="#00a8e8" stroke-width="1.5"/>
  <text x="310" y="125" font-family="Arial,sans-serif" font-size="13" fill="#00a8e8" text-anchor="middle" font-weight="700">ChromaDB</text>
  <text x="310" y="148" font-family="Arial,sans-serif" font-size="10" fill="#64748b" text-anchor="middle">Vector Store</text>
  <circle cx="280" cy="185" r="6" fill="#00a8e8" opacity="0.4"/>
  <circle cx="305" cy="200" r="6" fill="#00a8e8" opacity="0.6"/>
  <circle cx="330" cy="180" r="6" fill="#00a8e8" opacity="0.5"/>
  <circle cx="290" cy="215" r="6" fill="#00a8e8" opacity="0.35"/>
  <circle cx="340" cy="210" r="6" fill="#00a8e8" opacity="0.45"/>
  <rect x="430" y="50" width="180" height="250" rx="8" fill="#112240" stroke="#233554"/>
  <text x="520" y="78" font-family="Arial,sans-serif" font-size="12" fill="#64748b" text-anchor="middle" font-weight="600">LLM + RAG</text>
  <rect x="445" y="92" width="150" height="50" rx="6" fill="#004f90" opacity="0.3"/>
  <text x="520" y="118" font-family="Arial,sans-serif" font-size="11" fill="#00a8e8" text-anchor="middle">Qwen / LangChain</text>
  <rect x="445" y="158" width="150" height="70" rx="6" fill="#233554"/>
  <text x="520" y="182" font-family="Arial,sans-serif" font-size="10" fill="#8892b0" text-anchor="middle">Q: How to replace</text>
  <text x="520" y="198" font-family="Arial,sans-serif" font-size="10" fill="#8892b0" text-anchor="middle">the hydraulic pump?</text>
  <text x="520" y="216" font-family="Arial,sans-serif" font-size="10" fill="#00e676" text-anchor="middle">A: Step 1: Shut down...</text>
  <rect x="445" y="245" width="150" height="35" rx="6" fill="#233554"/>
  <text x="520" y="268" font-family="Arial,sans-serif" font-size="10" fill="#64748b" text-anchor="middle">React Frontend</text>
  <text x="320" y="30" font-family="Arial,sans-serif" font-size="14" fill="#64748b" text-anchor="middle" font-weight="600">Industrial RAG Knowledge Q and A System</text>
</svg>
